<svg width="26.000000" height="20.073669" viewBox="0 0 26 20.0737" fill="none" xmlns="http://www.w3.org/2000/svg" xmlns:xlink="http://www.w3.org/1999/xlink">
	<desc>
			Created with Pixso.
	</desc>
	<defs/>
	<path id="Vector" d="M26 8.24L26 8.96C26 9.55 25.51 10.03 24.91 10.03L24.55 10.03L23.37 18.22C23.22 19.28 22.31 20.07 21.23 20.07L4.76 20.07C3.68 20.07 2.77 19.28 2.62 18.22L1.44 10.03L1.08 10.03C0.48 10.03 0 9.55 0 8.96L0 8.24C0 7.65 0.48 7.16 1.08 7.16L4.12 7.16L8.94 0.59C9.41 -0.05 10.31 -0.2 10.96 0.27C11.6 0.74 11.74 1.63 11.27 2.27L7.69 7.16L18.3 7.16L14.72 2.27C14.25 1.63 14.39 0.74 15.03 0.27C15.68 -0.2 16.58 -0.05 17.05 0.59L21.87 7.16L24.91 7.16C25.51 7.16 26 7.65 26 8.24ZM14.08 16.13L14.08 11.11C14.08 10.51 13.59 10.03 13 10.03C12.4 10.03 11.91 10.51 11.91 11.11L11.91 16.13C11.91 16.72 12.4 17.2 13 17.2C13.59 17.2 14.08 16.72 14.08 16.13ZM19.13 16.13L19.13 11.11C19.13 10.51 18.65 10.03 18.05 10.03C17.45 10.03 16.97 10.51 16.97 11.11L16.97 16.13C16.97 16.72 17.45 17.2 18.05 17.2C18.65 17.2 19.13 16.72 19.13 16.13ZM9.02 16.13L9.02 11.11C9.02 10.51 8.54 10.03 7.94 10.03C7.34 10.03 6.86 10.51 6.86 11.11L6.86 16.13C6.86 16.72 7.34 17.2 7.94 17.2C8.54 17.2 9.02 16.72 9.02 16.13Z" fill="#333333" fill-opacity="1.000000" fill-rule="nonzero"/>
</svg>
