<svg width="17.333496" height="17.333313" viewBox="0 0 17.3335 17.3333" fill="none" xmlns="http://www.w3.org/2000/svg" xmlns:xlink="http://www.w3.org/1999/xlink">
	<desc>
			Created with Pixso.
	</desc>
	<defs/>
	<path id="Vector" d="M8.66 0C9.81 0 10.91 0.45 11.73 1.26C12.54 2.08 13 3.18 13 4.33C13 5.48 12.54 6.58 11.73 7.39C10.91 8.21 9.81 8.66 8.66 8.66C7.51 8.66 6.41 8.21 5.6 7.39C4.79 6.58 4.33 5.48 4.33 4.33C4.33 3.18 4.79 2.08 5.6 1.26C6.41 0.45 7.51 0 8.66 0ZM8.66 10.83C13.45 10.83 17.33 12.77 17.33 15.16L17.33 17.33L0 17.33L0 15.16C0 12.77 3.87 10.83 8.66 10.83Z" fill="#333333" fill-opacity="1.000000" fill-rule="nonzero"/>
</svg>
