<svg width="13.333496" height="13.333496" viewBox="0 0 13.3335 13.3335" fill="none" xmlns="http://www.w3.org/2000/svg" xmlns:xlink="http://www.w3.org/1999/xlink">
	<desc>
			Created with Pixso.
	</desc>
	<defs/>
	<path id="Vector" d="M12.49 13.33C5.38 13.34 -0.01 7.88 0 0.83C0 0.37 0.37 0 0.83 0L3.03 0C3.44 0 3.79 0.3 3.85 0.71C4 1.69 4.28 2.64 4.7 3.54L4.78 3.72C4.84 3.85 4.85 3.99 4.82 4.12C4.78 4.25 4.7 4.37 4.59 4.45C3.91 4.94 3.65 5.91 4.18 6.68C4.85 7.64 5.68 8.47 6.64 9.14C7.41 9.67 8.39 9.41 8.87 8.73C8.95 8.62 9.07 8.54 9.2 8.5C9.34 8.47 9.48 8.48 9.6 8.54L9.79 8.62C10.68 9.04 11.64 9.33 12.62 9.47C13.02 9.53 13.33 9.88 13.33 10.3L13.33 12.5C13.33 12.6 13.31 12.71 13.27 12.81C13.22 12.92 13.16 13.01 13.08 13.08C13.01 13.16 12.91 13.22 12.81 13.27C12.71 13.31 12.6 13.33 12.49 13.33L12.49 13.33Z" fill="#B59571" fill-opacity="1.000000" fill-rule="nonzero"/>
</svg>
