<svg width="11.666504" height="15.002930" viewBox="0 0 11.6665 15.0029" fill="none" xmlns="http://www.w3.org/2000/svg" xmlns:xlink="http://www.w3.org/1999/xlink">
	<desc>
			Created with Pixso.
	</desc>
	<defs/>
	<path id="Vector" d="M5.83 15C4.78 14.1 3.8 13.12 2.91 12.06C1.58 10.46 0 8.09 0 5.83C-0.01 4.68 0.34 3.55 0.98 2.59C1.62 1.63 2.53 0.88 3.6 0.44C4.66 0 5.84 -0.12 6.97 0.11C8.1 0.33 9.14 0.89 9.95 1.71C10.5 2.25 10.93 2.89 11.22 3.6C11.51 4.31 11.66 5.06 11.66 5.83C11.66 8.09 10.08 10.46 8.75 12.06C7.86 13.12 6.88 14.1 5.83 15ZM5.83 3.33C5.17 3.33 4.53 3.59 4.06 4.06C3.59 4.53 3.33 5.17 3.33 5.83C3.33 6.49 3.59 7.13 4.06 7.6C4.53 8.07 5.17 8.33 5.83 8.33C6.49 8.33 7.13 8.07 7.6 7.6C8.06 7.13 8.33 6.49 8.33 5.83C8.33 5.17 8.06 4.53 7.6 4.06C7.13 3.59 6.49 3.33 5.83 3.33Z" fill="#B59571" fill-opacity="1.000000" fill-rule="nonzero"/>
</svg>
