<svg width="33.333252" height="23.333313" viewBox="0 0 33.3333 23.3333" fill="none" xmlns="http://www.w3.org/2000/svg" xmlns:xlink="http://www.w3.org/1999/xlink">
	<desc>
			Created with Pixso.
	</desc>
	<defs/>
	<path id="Vector" d="M0 1.65C0 0.74 0.74 0 1.65 0L15 0C15.44 0 15.86 0.17 16.18 0.48C16.49 0.79 16.66 1.21 16.66 1.65C16.66 2.09 16.49 2.51 16.18 2.83C15.86 3.14 15.44 3.31 15 3.31L1.65 3.31C1.21 3.31 0.79 3.14 0.48 2.83C0.17 2.51 0 2.09 0 1.65ZM0 11.66C0 10.75 0.74 10 1.65 10L31.67 10C32.11 10 32.53 10.18 32.84 10.49C33.15 10.8 33.33 11.22 33.33 11.66C33.33 12.1 33.15 12.52 32.84 12.83C32.53 13.15 32.11 13.32 31.67 13.32L1.65 13.32C1.21 13.32 0.79 13.15 0.48 12.83C0.17 12.52 0 12.1 0 11.66ZM1.65 20.01C1.21 20.01 0.79 20.19 0.48 20.5C0.17 20.81 0 21.23 0 21.67C0 22.11 0.17 22.53 0.48 22.84C0.79 23.15 1.21 23.33 1.65 23.33L21.67 23.33C22.11 23.33 22.53 23.15 22.84 22.84C23.15 22.53 23.33 22.11 23.33 21.67C23.33 21.23 23.15 20.81 22.84 20.5C22.53 20.19 22.11 20.01 21.67 20.01L1.65 20.01Z" fill="#B59571" fill-opacity="1.000000" fill-rule="nonzero"/>
</svg>
