<svg width="33.333252" height="20.000000" viewBox="0 0 33.3333 20" fill="none" xmlns="http://www.w3.org/2000/svg" xmlns:xlink="http://www.w3.org/1999/xlink">
	<desc>
			Created with Pixso.
	</desc>
	<defs/>
	<path id="Vector" d="M33.28 1.47C33.56 2.24 32.69 4.02 30.66 6.83C30.38 7.21 30.02 7.72 29.57 8.36C28.64 9.55 28.11 10.34 27.99 10.72C27.79 11.24 27.87 11.72 28.24 12.19C28.44 12.45 28.9 12.96 29.63 13.72L29.69 13.72L29.69 13.79C31.35 15.36 32.47 16.7 33.03 17.81L33.15 18.06L33.28 18.54L33.28 19.15L32.85 19.63L31.82 19.85L27.39 19.98C27.1 20.02 26.77 19.98 26.38 19.85C26 19.72 25.71 19.6 25.5 19.47L25.14 19.21C24.77 18.96 24.37 18.58 23.92 18.06C23.48 17.55 23.08 17.09 22.74 16.66C22.39 16.23 22.04 15.88 21.68 15.61C21.31 15.33 20.99 15.23 20.7 15.32C20.66 15.32 20.61 15.34 20.55 15.38C20.49 15.43 20.39 15.52 20.25 15.67C20.11 15.82 19.99 16 19.88 16.21C19.78 16.43 19.69 16.73 19.61 17.14C19.53 17.54 19.49 18.02 19.49 18.58C19.49 18.75 19.47 18.9 19.43 19.05C19.39 19.2 19.35 19.32 19.31 19.4L19.25 19.47C19 19.72 18.68 19.85 18.28 19.85L16.33 19.85C15.48 19.94 14.62 19.85 13.75 19.6C12.88 19.34 12.12 19.01 11.47 18.61C10.83 18.2 10.24 17.8 9.71 17.39C9.19 16.99 8.78 16.64 8.5 16.34L8.07 15.89C7.95 15.81 7.79 15.64 7.59 15.38C7.38 15.13 6.97 14.58 6.34 13.72C5.71 12.87 5.1 11.96 4.49 10.98C3.88 10 3.17 8.71 2.36 7.12C1.55 5.52 0.8 3.87 0.12 2.17C0.04 1.96 0 1.79 0 1.66C0 1.53 0.02 1.43 0.06 1.34L0.12 1.28C0.28 1.02 0.6 0.9 1.09 0.9L5.89 0.9C6.01 0.9 6.13 0.93 6.25 0.99L6.55 1.15L6.61 1.21C6.82 1.34 6.96 1.53 7.04 1.79C7.28 2.38 7.56 3.01 7.86 3.67C8.16 4.33 8.4 4.83 8.56 5.17L8.8 5.68C9.17 6.41 9.5 7.03 9.8 7.57C10.11 8.1 10.38 8.51 10.62 8.81C10.87 9.11 11.11 9.34 11.35 9.51C11.59 9.68 11.8 9.77 11.96 9.77C12.12 9.77 12.28 9.75 12.45 9.7L12.51 9.61L12.72 9.19L12.96 8.36L13.11 6.9L13.11 4.6C13.07 4.13 13.01 3.69 12.93 3.29C12.85 2.88 12.77 2.6 12.69 2.43L12.63 2.24C12.34 1.81 11.84 1.53 11.11 1.41C10.99 1.41 11.03 1.26 11.23 0.96C11.43 0.75 11.66 0.58 11.9 0.45C12.51 0.11 13.88 -0.04 16.03 0C16.96 0 17.75 0.09 18.4 0.26C18.6 0.3 18.78 0.37 18.94 0.48C19.11 0.59 19.23 0.74 19.31 0.93C19.39 1.12 19.45 1.31 19.49 1.5C19.53 1.69 19.55 1.97 19.55 2.33L19.55 3.32C19.51 3.66 19.49 4.09 19.49 4.6L19.49 6.13C19.49 6.26 19.48 6.51 19.46 6.9C19.44 7.28 19.43 7.58 19.43 7.79C19.43 8 19.45 8.25 19.49 8.52C19.53 8.8 19.6 9.03 19.7 9.22C19.8 9.42 19.94 9.55 20.1 9.64C20.18 9.68 20.27 9.71 20.37 9.74C20.47 9.76 20.62 9.69 20.83 9.54C21.03 9.39 21.25 9.18 21.49 8.91C21.74 8.63 22.04 8.21 22.41 7.66C22.77 7.11 23.15 6.47 23.56 5.75C24.25 4.47 24.87 3.09 25.44 1.6C25.48 1.51 25.53 1.42 25.59 1.31C25.65 1.2 25.73 1.13 25.81 1.09L25.87 1.09L25.93 1.02L26.17 0.96L26.53 0.96L31.52 0.9C31.96 0.85 32.33 0.87 32.64 0.96C32.94 1.04 33.11 1.15 33.15 1.28L33.28 1.47Z" fill="#B59571" fill-opacity="1.000000" fill-rule="nonzero"/>
</svg>
