<svg width="33.330078" height="22.230835" viewBox="0 0 33.3301 22.2308" fill="none" xmlns="http://www.w3.org/2000/svg" xmlns:xlink="http://www.w3.org/1999/xlink">
	<desc>
			Created with Pixso.
	</desc>
	<defs/>
	<path id="Vector" d="M32.63 3.48C32.44 2.81 32.07 2.2 31.56 1.72C31.04 1.22 30.4 0.87 29.71 0.69C27.1 0 16.65 0 16.65 0C12.29 -0.05 7.94 0.17 3.61 0.65C2.91 0.85 2.28 1.21 1.75 1.71C1.24 2.2 0.87 2.81 0.67 3.48C0.21 6 -0.02 8.55 0 11.11C-0.02 13.67 0.21 16.22 0.67 18.74C0.86 19.4 1.23 20.01 1.75 20.5C2.26 20.99 2.91 21.35 3.61 21.53C6.25 22.22 16.65 22.22 16.65 22.22C21.01 22.27 25.37 22.05 29.71 21.57C30.4 21.39 31.04 21.03 31.56 20.54C32.08 20.05 32.44 19.44 32.63 18.77C33.11 16.26 33.34 13.7 33.32 11.14C33.36 8.57 33.12 6 32.63 3.48L32.63 3.48ZM13.33 15.86L13.33 6.36L22.02 11.11L13.33 15.86Z" fill="#B59571" fill-opacity="1.000000" fill-rule="nonzero"/>
</svg>
