<svg width="20.019531" height="20.016602" viewBox="0 0 20.0195 20.0166" fill="none" xmlns="http://www.w3.org/2000/svg" xmlns:xlink="http://www.w3.org/1999/xlink">
	<desc>
			Created with Pixso.
	</desc>
	<defs/>
	<path id="Vector" d="M12.35 10L19.52 2.85C19.84 2.54 20.01 2.11 20.01 1.67C20.01 1.22 19.84 0.8 19.52 0.49C19.21 0.17 18.78 0 18.34 0C17.89 0 17.47 0.17 17.15 0.49L10 7.65L2.85 0.49C2.54 0.17 2.12 0 1.67 0C1.23 0 0.8 0.17 0.49 0.49C0.17 0.8 0 1.22 0 1.67C0 2.11 0.17 2.54 0.49 2.85L7.65 10L0.49 17.15C0.33 17.31 0.21 17.49 0.12 17.69C0.04 17.9 0 18.12 0 18.34C0 18.56 0.04 18.77 0.12 18.98C0.21 19.18 0.33 19.36 0.49 19.52C0.64 19.67 0.83 19.8 1.03 19.88C1.23 19.97 1.45 20.01 1.67 20.01C1.89 20.01 2.11 19.97 2.31 19.88C2.52 19.8 2.7 19.67 2.85 19.52L10 12.35L17.15 19.52C17.31 19.67 17.49 19.8 17.7 19.88C17.9 19.97 18.12 20.01 18.34 20.01C18.56 20.01 18.78 19.97 18.98 19.88C19.18 19.8 19.37 19.67 19.52 19.52C19.68 19.36 19.8 19.18 19.89 18.98C19.97 18.77 20.01 18.56 20.01 18.34C20.01 18.12 19.97 17.9 19.89 17.69C19.8 17.49 19.68 17.31 19.52 17.15L12.35 10Z" fill="#B59571" fill-opacity="1.000000" fill-rule="nonzero"/>
</svg>
